<svg width="37" height="36" viewBox="0 0 37 36" fill="none" xmlns="http://www.w3.org/2000/svg">
<g clip-path="url(#clip0_3231:91834)">
<path d="M16.962 0C17.6671 0 18.3722 0 19.0773 0C19.1557 0.039173 19.2732 0.039173 19.3516 0.039173C21.8586 0.195865 24.2482 0.861806 26.4419 2.07617C32.357 5.40588 35.5692 10.4592 36.0001 17.2361C36.196 20.1349 35.6475 22.9554 34.3156 25.58C31.1035 32.0044 25.9326 35.4908 18.764 35.9608C15.1992 36.1959 11.8695 35.3341 8.81401 33.4538C3.36896 30.124 0.391816 25.1882 0.0392587 18.7639C-0.156606 15.5125 0.548508 12.3787 2.1546 9.51904C4.97506 4.46572 9.20574 1.33188 14.925 0.274211C15.5909 0.156692 16.2569 0.078346 16.962 0ZM17.9413 31.2992C20.8401 31.2992 23.4255 30.4766 25.6976 28.8313C26.1677 28.4788 26.6377 28.0871 27.0295 27.6561C27.6171 26.9119 27.5779 26.0109 27.4212 25.1491C26.8728 22.2503 24.444 20.2524 21.3886 20.2133C19.1557 20.2133 16.9228 20.2133 14.69 20.2133C11.4386 20.2133 8.97071 22.407 8.57898 25.6192C8.46146 26.6377 8.69649 27.5386 9.51913 28.2046C11.9479 30.2416 14.7683 31.2601 17.9413 31.2992ZM23.974 11.2818C23.8956 7.95212 21.1927 5.28836 17.9413 5.40588C14.6116 5.48422 11.987 8.14799 12.0654 11.3993C12.1437 14.7291 14.8467 17.3928 18.1372 17.3145C21.3886 17.2361 24.0523 14.494 23.974 11.2818Z" fill="#004A8E"/>
<g filter="url(#filter0_ddd_3231:91834)">
<path d="M18.1867 30.7977C15.0529 30.7586 12.1933 29.7401 9.72536 27.6639C8.90273 26.998 8.66769 26.097 8.78521 25.0785C9.21611 21.8663 11.684 19.7118 14.8962 19.6726C17.1291 19.6726 19.3619 19.6726 21.5948 19.6726C24.6503 19.6726 27.079 21.7096 27.6274 24.6084C27.7841 25.5094 27.8625 26.3712 27.2357 27.1155C26.8831 27.5856 26.3739 27.9773 25.9038 28.2907C23.6318 29.9751 21.0855 30.7977 18.1867 30.7977Z" fill="#EEF2F6"/>
</g>
<path d="M17.9414 31.2992C14.8075 31.26 11.9479 30.2415 9.48 28.1654C8.65737 27.4994 8.42233 26.5984 8.53985 25.5799C8.97075 22.3678 11.4387 20.2132 14.6508 20.1741C16.8837 20.1741 19.1166 20.1741 21.3494 20.1741C24.4049 20.1741 26.8336 22.2111 27.3821 25.1099C27.5388 26.0108 27.6171 26.8727 26.9903 27.6169C26.6378 28.087 26.1285 28.4787 25.6585 28.7921C23.3864 30.4766 20.8402 31.2992 17.9414 31.2992Z" fill="white"/>
<g filter="url(#filter1_ddd_3231:91834)">
<path d="M24.2192 10.7804C24.2976 13.9926 21.6338 16.6956 18.3433 16.7739C15.0527 16.8522 12.3498 14.1885 12.2715 10.8588C12.1931 7.64659 14.8569 4.98282 18.1474 4.8653C21.4379 4.82613 24.1409 7.45072 24.2192 10.7804Z" fill="#EEF2F6"/>
</g>
<path d="M23.9739 11.2819C24.0522 14.4941 21.3885 17.197 18.0979 17.2754C14.8074 17.3537 12.1044 14.6899 12.0261 11.3602C11.9478 8.14805 14.6115 5.48428 17.9021 5.36677C21.1926 5.32759 23.8955 7.95218 23.9739 11.2819Z" fill="white"/>
</g>
<defs>
<filter id="filter0_ddd_3231:91834" x="5.75684" y="17.6726" width="24.981" height="17.1251" filterUnits="userSpaceOnUse" color-interpolation-filters="sRGB">
<feFlood flood-opacity="0" result="BackgroundImageFix"/>
<feColorMatrix in="SourceAlpha" type="matrix" values="0 0 0 0 0 0 0 0 0 0 0 0 0 0 0 0 0 0 127 0" result="hardAlpha"/>
<feOffset dy="1"/>
<feGaussianBlur stdDeviation="1.5"/>
<feColorMatrix type="matrix" values="0 0 0 0 0 0 0 0 0 0 0 0 0 0 0 0 0 0 0.2 0"/>
<feBlend mode="normal" in2="BackgroundImageFix" result="effect1_dropShadow_3231:91834"/>
<feColorMatrix in="SourceAlpha" type="matrix" values="0 0 0 0 0 0 0 0 0 0 0 0 0 0 0 0 0 0 127 0" result="hardAlpha"/>
<feOffset dy="2"/>
<feGaussianBlur stdDeviation="0.5"/>
<feColorMatrix type="matrix" values="0 0 0 0 0 0 0 0 0 0 0 0 0 0 0 0 0 0 0.12 0"/>
<feBlend mode="normal" in2="effect1_dropShadow_3231:91834" result="effect2_dropShadow_3231:91834"/>
<feColorMatrix in="SourceAlpha" type="matrix" values="0 0 0 0 0 0 0 0 0 0 0 0 0 0 0 0 0 0 127 0" result="hardAlpha"/>
<feOffset dy="1"/>
<feGaussianBlur stdDeviation="0.5"/>
<feColorMatrix type="matrix" values="0 0 0 0 0 0 0 0 0 0 0 0 0 0 0 0 0 0 0.14 0"/>
<feBlend mode="normal" in2="effect2_dropShadow_3231:91834" result="effect3_dropShadow_3231:91834"/>
<feBlend mode="normal" in="SourceGraphic" in2="effect3_dropShadow_3231:91834" result="shape"/>
</filter>
<filter id="filter1_ddd_3231:91834" x="9.26978" y="2.86487" width="17.9512" height="17.9108" filterUnits="userSpaceOnUse" color-interpolation-filters="sRGB">
<feFlood flood-opacity="0" result="BackgroundImageFix"/>
<feColorMatrix in="SourceAlpha" type="matrix" values="0 0 0 0 0 0 0 0 0 0 0 0 0 0 0 0 0 0 127 0" result="hardAlpha"/>
<feOffset dy="1"/>
<feGaussianBlur stdDeviation="1.5"/>
<feColorMatrix type="matrix" values="0 0 0 0 0 0 0 0 0 0 0 0 0 0 0 0 0 0 0.2 0"/>
<feBlend mode="normal" in2="BackgroundImageFix" result="effect1_dropShadow_3231:91834"/>
<feColorMatrix in="SourceAlpha" type="matrix" values="0 0 0 0 0 0 0 0 0 0 0 0 0 0 0 0 0 0 127 0" result="hardAlpha"/>
<feOffset dy="2"/>
<feGaussianBlur stdDeviation="0.5"/>
<feColorMatrix type="matrix" values="0 0 0 0 0 0 0 0 0 0 0 0 0 0 0 0 0 0 0.12 0"/>
<feBlend mode="normal" in2="effect1_dropShadow_3231:91834" result="effect2_dropShadow_3231:91834"/>
<feColorMatrix in="SourceAlpha" type="matrix" values="0 0 0 0 0 0 0 0 0 0 0 0 0 0 0 0 0 0 127 0" result="hardAlpha"/>
<feOffset dy="1"/>
<feGaussianBlur stdDeviation="0.5"/>
<feColorMatrix type="matrix" values="0 0 0 0 0 0 0 0 0 0 0 0 0 0 0 0 0 0 0.14 0"/>
<feBlend mode="normal" in2="effect2_dropShadow_3231:91834" result="effect3_dropShadow_3231:91834"/>
<feBlend mode="normal" in="SourceGraphic" in2="effect3_dropShadow_3231:91834" result="shape"/>
</filter>
<clipPath id="clip0_3231:91834">
<rect width="36.0392" height="36" fill="white"/>
</clipPath>
</defs>
</svg>
